<?xml version="1.0"?>
<svg width="640" height="480.00000000000006" xmlns="http://www.w3.org/2000/svg" xmlns:svg="http://www.w3.org/2000/svg">
 <!-- Created with SVG-edit - http://svg-edit.googlecode.com/ -->
 <g>
  <title>Iniciales Carlos Ariel Paz</title>
  <desc>Son mis iniciales</desc>
  <path stroke="#000000" transform="rotate(-0.4275157153606415 319.5848999023452,238.33799743652295) " id="svg_2" d="m99.677892,401.440094l0,-353.387861l0,0c0,-15.013146 16.409309,-27.183682 36.651169,-27.183682l439.81403,0c20.241899,0 36.651169,12.170536 36.651169,27.183682c0,15.013116 -16.40927,27.183682 -36.651169,27.183682l-36.651169,0l0,353.387861c0,15.013146 -16.40929,27.183682 -36.651169,27.183682l-439.81403,0l0,0c-20.241899,0 -36.651169,-12.170536 -36.651169,-27.183682c0,-15.013146 16.40927,-27.183682 36.651169,-27.183682l36.651169,0zm73.302338,-380.571543l0,0c20.24186,0 36.651169,12.170536 36.651169,27.183682c0,15.013116 -16.409309,27.183682 -36.651169,27.183682c-10.12092,0 -18.325585,-6.08529 -18.325585,-13.591841c0,-7.506565 8.204665,-13.591841 18.325585,-13.591841l36.651169,0m366.511692,27.183682l-403.162861,0m-73.302338,326.204179l0,0c10.12092,0 18.325585,6.08529 18.325585,13.591841c0,7.506551 -8.204665,13.591841 -18.325585,13.591841l36.651169,0m-36.651169,27.183682l0,0c20.24186,0 36.651169,-12.170536 36.651169,-27.183682l0,-27.183682" stroke-linecap="null" stroke-linejoin="null" stroke-dasharray="null" stroke-width="5" fill="#007f3f"/>
  <text transform="rotate(-1.7619922161102295 320.58288574218545,245.55993652343713) matrix(4.7980260714194785,0,0,16.418792341712503,-856.3204293502331,-5523.464953159769) " fill="#000000" stroke-width="0" stroke-dasharray="null" stroke-linejoin="null" stroke-linecap="null" x="245.298365" y="359.376505" id="svg_5" font-size="24" font-family="serif" text-anchor="middle" xml:space="preserve" stroke="#000000" font-weight="bold" font-style="italic">C.A.P.H.</text>
 </g>
</svg>
